# xmcd CD database file
#
# Track frame offsets:
#	150
#	9611
#	25255
#	42915
#	65359
#	83497
#	91374
#	101151
#	112736
#	122354
#	134862
#	151715
#	183792
#	209728
#
# Disc length: 2875 seconds
#
# Revision: 4
# Processed by: cddbd v1.5.2PL0 Copyright (c) Steve Scherf et al.
# Submitted via: CDex 1.51
#
DISCID=af0b390e
DTITLE=King Crimson - The Collectors' King Crimson - Champaign-Urbana Sessions January 17-30, 1983
DYEAR=2002
DGENRE=Progressive Rock
TTITLE0=San Francisco
TTITLE1=Tony Bass Riff
TTITLE2=Sequenced
TTITLE3=Steinberger Melody
TTITLE4=Fragmented
TTITLE5=Not One Of Those
TTITLE6=ZZZZ's
TTITLE7=Reel 3 Jam
TTITLE8=Robert And Bill
TTITLE9=Say NO
TTITLE10=Robert's Ballad
TTITLE11=Heat In The Jungle
TTITLE12=Grace Jones
TTITLE13=Adrian Looped
EXTD=YEAR: 2002
EXTT0=
EXTT1=
EXTT2=
EXTT3=
EXTT4=
EXTT5=
EXTT6=
EXTT7=
EXTT8=
EXTT9=
EXTT10=
EXTT11=
EXTT12=
EXTT13=
PLAYORDER=
